<?xml version="1.0" encoding="UTF-8" standalone="no"?><svg xmlns="http://www.w3.org/2000/svg" xmlns:xlink="http://www.w3.org/1999/xlink" contentScriptType="application/ecmascript" contentStyleType="text/css" height="65px" preserveAspectRatio="none" style="width:195px;height:65px;" version="1.1" viewBox="0 0 195 65"
    width="195px" zoomAndPan="magnify"><defs><filter height="300%" id="fel5j7239pk6l" width="300%" x="-1" y="-1"><feGaussianBlur result="blurOut" stdDeviation="2.0"/><feColorMatrix in="blurOut" result="blurOut2" type="matrix" values="0 0 0 0 0 0 0 0 0 0 0 0 0 0 0 0 0 0 .4 0"/><feOffset dx="4.0" dy="4.0" in="blurOut2" result="blurOut3"/><feBlend in="SourceGraphic" in2="blurOut3" mode="normal"/></filter></defs><g><!--class client--><rect fill="#FEFECE" filter="url(#fel5j7239pk6l)" height="48" id="client" style="stroke: #A80036; stroke-width: 1.5;" width="62" x="6" y="8"/><ellipse cx="21" cy="24" fill="#ADD1B2" rx="11" ry="11" style="stroke: #A80036; stroke-width: 1.0;"/><path d="M23.9731,29.6431 Q23.3921,29.9419 22.7529,30.0913 Q22.1138,30.2407 21.4082,30.2407 Q18.9014,30.2407 17.5815,28.5889 Q16.2617,26.937 16.2617,23.8159 Q16.2617,20.6865 17.5815,19.0347 Q18.9014,17.3828 21.4082,17.3828 Q22.1138,17.3828 22.7612,17.5322 Q23.4087,17.6816 23.9731,17.9805 L23.9731,20.7031 Q23.3423,20.1221 22.7488,19.8523 Q22.1553,19.5825 21.5244,19.5825 Q20.1797,19.5825 19.4949,20.6492 Q18.8101,21.7158 18.8101,23.8159 Q18.8101,25.9077 19.4949,26.9744 Q20.1797,28.041 21.5244,28.041 Q22.1553,28.041 22.7488,27.7712 Q23.3423,27.5015 23.9731,26.9204 Z "/><text fill="#000000" font-family="sans-serif" font-size="12" lengthAdjust="spacingAndGlyphs" textLength="30" x="35" y="28.5352">client</text><line style="stroke: #A80036; stroke-width: 1.5;" x1="7" x2="67" y1="40" y2="40"/><line style="stroke: #A80036; stroke-width: 1.5;" x1="7" x2="67" y1="48" y2="48"/><!--class Singleton--><rect fill="#FEFECE" filter="url(#fel5j7239pk6l)" height="48" id="Singleton" style="stroke: #A80036; stroke-width: 1.5;" width="83" x="103.5" y="8"/><ellipse cx="118.5" cy="24" fill="#ADD1B2" rx="11" ry="11" style="stroke: #A80036; stroke-width: 1.0;"/><path d="M121.4731,29.6431 Q120.8921,29.9419 120.2529,30.0913 Q119.6138,30.2407 118.9082,30.2407 Q116.4014,30.2407 115.0815,28.5889 Q113.7617,26.937 113.7617,23.8159 Q113.7617,20.6865 115.0815,19.0347 Q116.4014,17.3828 118.9082,17.3828 Q119.6138,17.3828 120.2612,17.5322 Q120.9087,17.6816 121.4731,17.9805 L121.4731,20.7031 Q120.8423,20.1221 120.2488,19.8523 Q119.6553,19.5825 119.0244,19.5825 Q117.6797,19.5825 116.9949,20.6492 Q116.3101,21.7158 116.3101,23.8159 Q116.3101,25.9077 116.9949,26.9744 Q117.6797,28.041 119.0244,28.041 Q119.6553,28.041 120.2488,27.7712 Q120.8423,27.5015 121.4731,26.9204 Z "/><text fill="#000000" font-family="sans-serif" font-size="12" lengthAdjust="spacingAndGlyphs" textLength="51" x="132.5" y="28.5352">Singleton</text><line style="stroke: #A80036; stroke-width: 1.5;" x1="104.5" x2="185.5" y1="40" y2="40"/><line style="stroke: #A80036; stroke-width: 1.5;" x1="104.5" x2="185.5" y1="48" y2="48"/><!--
@startuml
class client{
}

class Singleton{
}
@enduml

PlantUML version 1.2017.13(Thu May 11 00:52:33 CST 2017)
(GPL source distribution)
Java Runtime: Java(TM) SE Runtime Environment
JVM: Java HotSpot(TM) 64-Bit Server VM
Java Version: 1.8.0_11-b12
Operating System: Mac OS X
OS Version: 10.10.5
Default Encoding: UTF-8
Language: zh
Country: CN
--></g></svg>