<?xml version="1.0" encoding="UTF-8" standalone="no"?><svg xmlns="http://www.w3.org/2000/svg" xmlns:xlink="http://www.w3.org/1999/xlink" contentScriptType="application/ecmascript" contentStyleType="text/css" height="254px" preserveAspectRatio="none" style="width:726px;height:254px;" version="1.1" viewBox="0 0 726 254"
    width="726px" zoomAndPan="magnify"><defs><filter height="300%" id="f12w88inyaykc0" width="300%" x="-1" y="-1"><feGaussianBlur result="blurOut" stdDeviation="2.0"/><feColorMatrix in="blurOut" result="blurOut2" type="matrix" values="0 0 0 0 0 0 0 0 0 0 0 0 0 0 0 0 0 0 .4 0"/><feOffset dx="4.0" dy="4.0" in="blurOut2" result="blurOut3"/><feBlend in="SourceGraphic" in2="blurOut3" mode="normal"/></filter></defs><g><text fill="#000000" font-family="sans-serif" font-size="18" lengthAdjust="spacingAndGlyphs" textLength="115" x="310" y="17.4023">Atlas主要类图</text><!--class Atlas--><rect fill="#FEFECE" filter="url(#f12w88inyaykc0)" height="216.416" id="Atlas" style="stroke: #A80036; stroke-width: 1.5;" width="481" x="6" y="29.1992"/><ellipse cx="228.25" cy="45.1992" fill="#ADD1B2" rx="11" ry="11" style="stroke: #A80036; stroke-width: 1.0;"/><path d="M231.2231,50.8423 Q230.6421,51.1411 230.0029,51.2905 Q229.3638,51.4399 228.6582,51.4399 Q226.1514,51.4399 224.8315,49.7881 Q223.5117,48.1362 223.5117,45.0151 Q223.5117,41.8857 224.8315,40.2339 Q226.1514,38.582 228.6582,38.582 Q229.3638,38.582 230.0112,38.7314 Q230.6587,38.8809 231.2231,39.1797 L231.2231,41.9023 Q230.5923,41.3213 229.9988,41.0515 Q229.4053,40.7817 228.7744,40.7817 Q227.4297,40.7817 226.7449,41.8484 Q226.0601,42.915 226.0601,45.0151 Q226.0601,47.1069 226.7449,48.1736 Q227.4297,49.2402 228.7744,49.2402 Q229.4053,49.2402 229.9988,48.9705 Q230.5923,48.7007 231.2231,48.1196 Z "/><text fill="#000000" font-family="sans-serif" font-size="12" lengthAdjust="spacingAndGlyphs" textLength="28" x="248.75" y="49.7344">Atlas</text><line style="stroke: #A80036; stroke-width: 1.5;" x1="7" x2="486" y1="61.1992" y2="61.1992"/><ellipse cx="17" cy="73.1768" fill="none" rx="3" ry="3" style="stroke: #038048; stroke-width: 1.0;"/><text fill="#000000" font-family="sans-serif" font-size="11" lengthAdjust="spacingAndGlyphs" textLength="137" x="26" y="75.834">static String : sAPKSource</text><ellipse cx="17" cy="86.1318" fill="none" rx="3" ry="3" style="stroke: #038048; stroke-width: 1.0;"/><text fill="#000000" font-family="sans-serif" font-size="11" lengthAdjust="spacingAndGlyphs" textLength="166" x="26" y="88.7891">static boolean : Downgrade_H5</text><line style="stroke: #A80036; stroke-width: 1.5;" x1="7" x2="486" y1="95.1094" y2="95.1094"/><ellipse cx="17" cy="107.0869" fill="#84BE84" rx="3" ry="3" style="stroke: #038048; stroke-width: 1.0;"/><text fill="#000000" font-family="sans-serif" font-size="11" lengthAdjust="spacingAndGlyphs" textLength="247" x="26" y="109.7441">void : startUp(Application, boolean isUpdated)</text><ellipse cx="17" cy="120.042" fill="#84BE84" rx="3" ry="3" style="stroke: #038048; stroke-width: 1.0;"/><text fill="#000000" font-family="sans-serif" font-size="11" lengthAdjust="spacingAndGlyphs" textLength="227" x="26" y="122.6992">void : checkDownGradeToH5(Intent intent)</text><ellipse cx="17" cy="132.9971" fill="#84BE84" rx="3" ry="3" style="stroke: #038048; stroke-width: 1.0;"/><text fill="#000000" font-family="sans-serif" font-size="11" lengthAdjust="spacingAndGlyphs" textLength="184" x="26" y="135.6543">Bundle : getBundle(String location)</text><ellipse cx="17" cy="145.9521" fill="#84BE84" rx="3" ry="3" style="stroke: #038048; stroke-width: 1.0;"/><text fill="#000000" font-family="sans-serif" font-size="11" lengthAdjust="spacingAndGlyphs" textLength="149" x="26" y="148.6094">List&lt;Bundle&gt; : getBundles()</text><ellipse cx="17" cy="158.9072" fill="#84BE84" rx="3" ry="3" style="stroke: #038048; stroke-width: 1.0;"/><text fill="#000000" font-family="sans-serif" font-size="11" lengthAdjust="spacingAndGlyphs" textLength="280" x="26" y="161.5645">ClassLoader : getBundleClassLoader(String location)</text><ellipse cx="17" cy="171.8623" fill="#84BE84" rx="3" ry="3" style="stroke: #038048; stroke-width: 1.0;"/><text fill="#000000" font-family="sans-serif" font-size="11" lengthAdjust="spacingAndGlyphs" textLength="184" x="26" y="174.5195">File : getBundleFile(String location)</text><ellipse cx="17" cy="184.8174" fill="#84BE84" rx="3" ry="3" style="stroke: #038048; stroke-width: 1.0;"/><text fill="#000000" font-family="sans-serif" font-size="11" lengthAdjust="spacingAndGlyphs" textLength="218" x="26" y="187.4746">void : addBundleListener(BundleListener)</text><ellipse cx="17" cy="197.7725" fill="#84BE84" rx="3" ry="3" style="stroke: #038048; stroke-width: 1.0;"/><text fill="#000000" font-family="sans-serif" font-size="11" lengthAdjust="spacingAndGlyphs" textLength="238" x="26" y="200.4297">void : removeBundleListener(BundleListener)</text><ellipse cx="17" cy="210.7275" fill="#84BE84" rx="3" ry="3" style="stroke: #038048; stroke-width: 1.0;"/><text fill="#000000" font-family="sans-serif" font-size="11" lengthAdjust="spacingAndGlyphs" textLength="291" x="26" y="213.3848">void : setClassNoteFoundInterceptorCallback(callBack)</text><ellipse cx="17" cy="223.6826" fill="#84BE84" rx="3" ry="3" style="stroke: #038048; stroke-width: 1.0;"/><text fill="#000000" font-family="sans-serif" font-size="11" lengthAdjust="spacingAndGlyphs" textLength="455" x="26" y="226.3398">void : installBundleTransitivelyAsync(String[] locations,BundleInstaller.InstallListener)</text><ellipse cx="17" cy="236.6377" fill="#84BE84" rx="3" ry="3" style="stroke: #038048; stroke-width: 1.0;"/><text fill="#000000" font-family="sans-serif" font-size="11" lengthAdjust="spacingAndGlyphs" textLength="430" x="26" y="239.2949">void : installIdleBundleTransitively(String location,BundleInstaller.InstallListener);</text><!--class bundle--><rect fill="#FEFECE" filter="url(#f12w88inyaykc0)" height="216.416" id="bundle" style="stroke: #A80036; stroke-width: 1.5;" width="195" x="522" y="29.1992"/><ellipse cx="595.25" cy="45.1992" fill="#B4A7E5" rx="11" ry="11" style="stroke: #A80036; stroke-width: 1.0;"/><path d="M591.1777,40.9644 L591.1777,38.8062 L598.5571,38.8062 L598.5571,40.9644 L596.0918,40.9644 L596.0918,49.041 L598.5571,49.041 L598.5571,51.1992 L591.1777,51.1992 L591.1777,49.041 L593.6431,49.041 L593.6431,40.9644 Z "/><text fill="#000000" font-family="sans-serif" font-size="12" font-style="italic" lengthAdjust="spacingAndGlyphs" textLength="40" x="615.75" y="49.7344">bundle</text><line style="stroke: #A80036; stroke-width: 1.5;" x1="523" x2="716" y1="61.1992" y2="61.1992"/><ellipse cx="533" cy="73.1768" fill="none" rx="3" ry="3" style="stroke: #038048; stroke-width: 1.0;"/><text fill="#000000" font-family="sans-serif" font-size="11" lengthAdjust="spacingAndGlyphs" textLength="155" x="542" y="75.834">static final int : UNINSTALLED</text><ellipse cx="533" cy="86.1318" fill="none" rx="3" ry="3" style="stroke: #038048; stroke-width: 1.0;"/><text fill="#000000" font-family="sans-serif" font-size="11" lengthAdjust="spacingAndGlyphs" textLength="139" x="542" y="88.7891">static final int : INSTALLED</text><ellipse cx="533" cy="99.0869" fill="none" rx="3" ry="3" style="stroke: #038048; stroke-width: 1.0;"/><text fill="#000000" font-family="sans-serif" font-size="11" lengthAdjust="spacingAndGlyphs" textLength="136" x="542" y="101.7441">static final int : RESOLVED</text><ellipse cx="533" cy="112.042" fill="none" rx="3" ry="3" style="stroke: #038048; stroke-width: 1.0;"/><text fill="#000000" font-family="sans-serif" font-size="11" lengthAdjust="spacingAndGlyphs" textLength="135" x="542" y="114.6992">static final int : STARTING</text><ellipse cx="533" cy="124.9971" fill="none" rx="3" ry="3" style="stroke: #038048; stroke-width: 1.0;"/><text fill="#000000" font-family="sans-serif" font-size="11" lengthAdjust="spacingAndGlyphs" textLength="134" x="542" y="127.6543">static final int : STOPPING</text><ellipse cx="533" cy="137.9521" fill="none" rx="3" ry="3" style="stroke: #038048; stroke-width: 1.0;"/><text fill="#000000" font-family="sans-serif" font-size="11" lengthAdjust="spacingAndGlyphs" textLength="120" x="542" y="140.6094">static final int : ACTIVE</text><ellipse cx="533" cy="150.9072" fill="none" rx="3" ry="3" style="stroke: #038048; stroke-width: 1.0;"/><text fill="#000000" font-family="sans-serif" font-size="11" lengthAdjust="spacingAndGlyphs" textLength="69" x="542" y="153.5645">int  : getState</text><ellipse cx="533" cy="163.8623" fill="none" rx="3" ry="3" style="stroke: #038048; stroke-width: 1.0;"/><text fill="#000000" font-family="sans-serif" font-size="11" lengthAdjust="spacingAndGlyphs" textLength="57" x="542" y="166.5195">void : start</text><ellipse cx="533" cy="176.8174" fill="none" rx="3" ry="3" style="stroke: #038048; stroke-width: 1.0;"/><text fill="#000000" font-family="sans-serif" font-size="11" lengthAdjust="spacingAndGlyphs" textLength="56" x="542" y="179.4746">void : stop</text><ellipse cx="533" cy="189.7725" fill="none" rx="3" ry="3" style="stroke: #038048; stroke-width: 1.0;"/><text fill="#000000" font-family="sans-serif" font-size="11" lengthAdjust="spacingAndGlyphs" textLength="78" x="542" y="192.4297">void : uninstall</text><ellipse cx="533" cy="202.7275" fill="none" rx="3" ry="3" style="stroke: #038048; stroke-width: 1.0;"/><text fill="#000000" font-family="sans-serif" font-size="11" lengthAdjust="spacingAndGlyphs" textLength="96" x="542" y="205.3848">long : getBundleId</text><ellipse cx="533" cy="215.6826" fill="none" rx="3" ry="3" style="stroke: #038048; stroke-width: 1.0;"/><text fill="#000000" font-family="sans-serif" font-size="11" lengthAdjust="spacingAndGlyphs" textLength="104" x="542" y="218.3398">String : getLocation</text><line style="stroke: #A80036; stroke-width: 1.5;" x1="523" x2="716" y1="224.6602" y2="224.6602"/><ellipse cx="533" cy="236.6377" fill="#84BE84" rx="3" ry="3" style="stroke: #038048; stroke-width: 1.0;"/><text fill="#000000" font-family="sans-serif" font-size="11" lengthAdjust="spacingAndGlyphs" textLength="169" x="542" y="239.2949">URL : getResource(String name)</text><!--
@startuml
title Atlas主要类图

class Atlas{
+ static String : sAPKSource
+ static boolean : Downgrade_H5
+ void : startUp(Application, boolean isUpdated)
+ void : checkDownGradeToH5(Intent intent)
+ Bundle : getBundle(String location)
+ List<Bundle> : getBundles()
+ ClassLoader : getBundleClassLoader(String location)
+ File : getBundleFile(String location)
+ void : addBundleListener(BundleListener)
+ void : removeBundleListener(BundleListener)
+ void : setClassNoteFoundInterceptorCallback(callBack)
+ void : installBundleTransitivelyAsync(String[] locations,BundleInstaller.InstallListener)
+ void : installIdleBundleTransitively(String location,BundleInstaller.InstallListener);
}

interface bundle{
  + static final int : UNINSTALLED
  + static final int : INSTALLED
  + static final int : RESOLVED
  + static final int : STARTING
  + static final int : STOPPING
  + static final int : ACTIVE
  + int  : getState
  + void : start
  + void : stop
  + void : uninstall
  + long : getBundleId
  + String : getLocation
  + URL : getResource(String name)
}
@enduml

PlantUML version 1.2017.13(Thu May 11 00:52:33 CST 2017)
(GPL source distribution)
Java Runtime: Java(TM) SE Runtime Environment
JVM: Java HotSpot(TM) 64-Bit Server VM
Java Version: 1.8.0_11-b12
Operating System: Mac OS X
OS Version: 10.10.5
Default Encoding: UTF-8
Language: zh
Country: CN
--></g></svg>